<svg xmlns="http://www.w3.org/2000/svg" viewBox="0 0 750 500"><path d="M263.35 194.71h160.71v52.27H263.35z" style="fill:#c7c7c7" transform="matrix(-1 0 0 -1 687.41 441.68)"/><path d="M424.06 194.71v52.27h250.51v-5.1h-5.4v-42.07h5.4v-5.1z" style="fill:#a6a6a6"/><path d="M430.63 200.13h238.81v41.42H430.63z" style="fill:#fff" transform="matrix(-1 0 0 -1 1100.08 441.68)"/><path d="M430.63 241.55c59.53-.17 179.31-.38 238.82-.45l-.45.45v-41.42c-36.23 1.43-141.32-.18-178.61.29l-59.71-.14c.17-.89 0 41.46 0 41.27Zm0 0-.14-41.56c0-.13 59.81-.13 59.85-.15l179.11-.21h.5v.5l-.05 41.42v.45h-.45c-59.52-.06-179.31-.27-238.82-.45" style="fill:#dbdbdb"/><path d="M583.74 232.39q27.39.36 54.78.5l30.93.08v-1.15l-30.93.08q-27.39.1-54.78.49M430.63 222.6v1.06l39.87.11 57.79-.15q27.39-.13 54.78-.49-27.39-.36-54.78-.49l-57.79-.15ZM430.63 207.07v1.28l57-.15q27.41-.13 54.78-.49-27.39-.36-54.78-.49ZM430.63 232.5v1.06h15.31q27.39-.12 54.79-.49-27.41-.34-54.79-.49ZM581.91 214.65q27.4.34 54.79.49l32.75.09v-1.16l-32.75.09q-27.41.12-54.79.49M653.56 218.9q-18.85-.1-37.73-.15h-78.56q-18.87 0-37.73.15 18.87.1 37.73.15h78.56q18.87-.05 37.73-.15" style="fill:#dbdbdb"/><path d="M477.11 155.86h160.71v38.85H477.11z" style="fill:#ebebeb"/><path d="M477.1 194.71v-38.85H226.59v3.79h5.4v31.27h-5.4v3.79z" style="fill:#dbdbdb"/><path d="M231.72 159.89h238.81v30.79H231.72z" style="fill:#fff"/><path d="M470.53 159.89c-59.53.18-179.31.39-238.81.46l.46-.46v30.79c-3.16-1.38 119.62.09 118.91-.35 29.74 0 89.68.14 119.41.24-.17.66 0-30.81 0-30.68Zm0 0 .11 30.79v.11h-.11c-29.79.1-89.63.23-119.41.24l-119.4.15h-.5v-31.75h.46c59.52.07 179.31.28 238.81.46Z" style="fill:#dbdbdb"/><path d="M317.43 166.7q-27.39-.27-54.79-.37l-30.93-.06v.85l30.93-.05q27.36-.07 54.79-.37M470.53 174v-.79l-39.86-.08-57.79.11q-27.39.1-54.79.36 27.39.27 54.79.37l57.79.11ZM470.53 185.52v-1l-57 .11q-27.4.1-54.79.37 27.39.25 54.79.36ZM470.53 166.62v-.79h-15.31q-27.39.09-54.78.37 27.39.26 54.78.36ZM319.26 179.89q-27.4-.25-54.8-.37l-32.75-.06v.86l32.75-.07q27.41-.09 54.8-.36M247.6 176.73q18.87.08 37.73.11h78.56q18.87 0 37.73-.11-18.86-.09-37.73-.11h-78.56q-18.87.03-37.73.11" style="fill:#dbdbdb"/><path d="M103.9 77.67h223v169.31h-223z" style="fill:#ebebeb"/><path d="M326.9 77.67h84.75v169.31H326.9zM103.9 161.67h223l-174.15 4.39zM326.9 226.37h-223l174.16 4.39zM103.9 113.98h141.26l-125.57 3.58zM326.9 201.25H185.65l125.56 3.58z" style="fill:#dbdbdb"/><path d="M345.62 88.2H204.37l125.57 3.59zM200.6 98.93h159.32l-26.56 2.15zM125.58 179.96H284.9l-26.56 2.15z" style="fill:#dbdbdb"/><path d="M223.55 130.22H326.9l18.47 5.74zM248.46 187.43h103.35l18.46 5.74zM225.73 212.64h103.35l18.47 5.74z" style="fill:#ebebeb"/><path d="M75.43 130.22h103.35l18.46 5.74z" style="fill:#dbdbdb"/><path d="M208.04 97.14H104.7l-18.47 5.73zM213.63 198.38H110.28l-18.47 5.74z" style="fill:#ebebeb"/><path d="M208.04 206.91H104.7l-18.47 5.73zM326.9 187.43h82.99l18.47 5.74zM355.87 161.67h64.36l-8.58-4.69z" style="fill:#dbdbdb"/><path d="M55.46 247c204.72-.61 434.36-.62 639.08 0-204.72.62-434.36.61-639.08 0" style="fill:#263238"/><path d="m467.45 388.57 99.31-24.41 126.18 17.58-103.6 26.22z" style="fill:#dbdbdb"/><path d="m467.45 388.57 99.28-24.52S693 381.51 693 381.5l1.27.17-1.27.33-103.66 26.1s-121.85-19.54-121.89-19.53m0 0s122.08 19.27 121.86 19.26l103.57-26.33v.49s-126.28-17.73-126.09-17.72z" style="fill:#dbdbdb"/><path d="M585.39 401.16c6.11-1.88 12.41-3.63 18.73-5.36s12.74-3.39 19.18-5 13-3.24 19.58-4.77l9.92-2.29c3.38-.72 6.69-1.48 10.11-2.16-3 .95-6.18 1.82-9.27 2.74l-9.45 2.61c-6.3 1.75-12.74 3.4-19.18 5s-13 3.24-19.58 4.77-13.22 3.06-20.04 4.46M601.8 391.23c7-2.4 14.56-4.46 22.22-6.42s15.56-3.81 23.98-5.25c-7 2.41-14.55 4.46-22.22 6.42s-15.61 3.77-23.98 5.25M555.47 397.19c6.11-1.88 12.41-3.63 18.73-5.36s12.74-3.39 19.18-5 13-3.24 19.57-4.77l9.93-2.28c3.37-.72 6.69-1.48 10.11-2.17-3 .95-6.18 1.83-9.27 2.74l-9.45 2.62c-6.31 1.74-12.74 3.39-19.18 5s-13 3.24-19.58 4.77-13.22 3.05-20.04 4.45M551.65 392.38c10.39-3.26 21.3-6.16 32.34-9s22.3-5.48 34-7.81c-10.39 3.26-21.3 6.16-32.33 9s-22.27 5.48-34.01 7.81M564.63 383.33c5.73-2.08 12-3.81 18.37-5.45s13-3.12 20.07-4.28c-5.73 2.09-12 3.81-18.36 5.45s-13 3.12-20.08 4.28" style="fill:#c7c7c7"/><path d="m57.06 286.06 137.8-26.08 132.97 38.85-137.11 27.02z" style="fill:#ebebeb"/><path d="m57.06 286.06 137.81-26.21s133 38.75 133 38.74l1 .29-1 .2L190.72 326c-.05 0-133.62-39.91-133.66-39.91Zm0 0 133.7 39.66c-.33.07 137.11-27.16 137-27.13v.48l-132.93-39c.26-.06-137.81 26-137.77 26Z" style="fill:#dbdbdb"/><path d="M188.79 317.93c9-2.08 18.07-4 27.18-5.93s18.29-3.77 27.48-5.59 18.43-3.6 27.73-5.29l13.95-2.54c4.69-.8 9.34-1.64 14.07-2.4-4.48 1.05-9 2-13.54 3L272 302.11c-9.1 1.94-18.29 3.77-27.47 5.59s-18.43 3.6-27.73 5.29-18.59 3.4-28.01 4.94M224.11 304.1c9.82-2.53 20-4.67 30.21-6.71s20.61-3.9 31.29-5.41c-9.82 2.53-20 4.67-30.21 6.71s-20.61 3.9-31.29 5.41M175.2 306.86c7.85-1.86 15.81-3.57 23.79-5.27s16-3.31 24.08-4.92 16.17-3.15 24.34-4.62l12.25-2.2c4.13-.69 8.21-1.42 12.37-2.07-3.91.94-7.89 1.8-11.84 2.7l-11.95 2.57c-8 1.71-16 3.31-24.08 4.92s-16.16 3.14-24.33 4.62-16.33 2.95-24.63 4.27M168.79 301.25c7.25-1.74 14.61-3.34 22-4.92s14.83-3.08 22.29-4.56 15-2.92 22.54-4.27l11.35-2c3.83-.63 7.62-1.3 11.48-1.89-3.61.89-7.3 1.68-10.94 2.53l-11.06 2.39c-7.37 1.59-14.83 3.08-22.29 4.56s-15 2.91-22.54 4.27-15.13 2.64-22.83 3.89M134.46 301.14c9-2.08 18.07-4 27.18-5.94s18.29-3.76 27.48-5.59 18.43-3.59 27.72-5.29l14-2.54c4.69-.79 9.34-1.64 14.07-2.4-4.48 1.06-9 2-13.54 3l-13.65 2.9c-9.1 1.93-18.29 3.76-27.47 5.59s-18.43 3.59-27.73 5.29-18.64 3.43-28.06 4.98M133.32 294.49c7.94-1.88 16-3.61 24.07-5.33s16.22-3.35 24.37-5 16.35-3.19 24.61-4.68l12.4-2.23c4.17-.7 8.31-1.44 12.51-2.09-4 .95-8 1.81-12 2.73l-12.09 2.59c-8.06 1.73-16.21 3.35-24.36 5s-16.36 3.19-24.62 4.68-16.5 2.99-24.89 4.33M107.29 292.74c9-2.08 18.07-4 27.19-5.93s18.29-3.81 27.52-5.59 18.43-3.6 27.73-5.29l13.95-2.54c4.69-.8 9.35-1.64 14.07-2.4-4.48 1.05-9 2-13.53 3l-13.65 2.91c-9.1 1.93-18.29 3.76-27.48 5.58s-18.43 3.6-27.73 5.29-18.64 3.43-28.07 4.97M138.86 279.65c10.45-2.66 21.23-4.92 32.09-7.08s21.86-4.15 33.17-5.78c-10.45 2.66-21.22 4.91-32.09 7.08s-21.86 4.13-33.17 5.78" style="fill:#dbdbdb"/><path d="m258.98 419.2 175.12-33.14 168.96 49.37-174.23 34.33z" style="fill:#ebebeb"/><path d="m259 419.2 175.1-33.27s169 49.27 169 49.26l1 .29-1 .2-174.27 34.21C428.78 469.9 259 419.2 259 419.2m0 0 169.89 50.44c-.31 0 174.22-34.47 174.14-34.45v.48l-168.97-49.49c.26-.08-175.12 33.07-175.08 33Z" style="fill:#dbdbdb"/><path d="M426.37 459.7c11.41-2.64 23-5.11 34.55-7.54s23.24-4.78 34.91-7.1 23.42-4.57 35.24-6.73l17.73-3.22c6-1 11.87-2.09 17.88-3.05-5.69 1.34-11.47 2.57-17.2 3.86l-17.35 3.68c-11.56 2.46-23.24 4.78-34.91 7.1s-23.42 4.57-35.24 6.72-23.63 4.32-35.61 6.28M471.26 442.12c12.48-3.21 25.38-5.93 38.38-8.52s26.2-5 39.78-6.88c-12.48 3.22-25.39 5.94-38.39 8.53s-26.2 4.95-39.77 6.87M409.11 445.63c10-2.36 20.09-4.54 30.23-6.69s20.37-4.21 30.6-6.25 20.54-4 30.92-5.88l15.58-2.8c5.24-.87 10.43-1.8 15.72-2.62-5 1.2-10 2.29-15 3.43l-15.18 3.26c-10.13 2.17-20.37 4.21-30.6 6.25s-20.55 4-30.93 5.87-20.8 3.8-31.34 5.43M401 438.5c9.21-2.21 18.57-4.24 28-6.24s18.84-3.92 28.32-5.81 19-3.7 28.64-5.42l14.44-2.58c4.86-.79 9.67-1.65 14.58-2.4-4.59 1.13-9.27 2.14-13.91 3.21l-14.05 3c-9.36 2-18.84 3.91-28.32 5.8s-19 3.7-28.64 5.42S410.74 437 401 438.5M357.33 438.36c11.41-2.64 23-5.11 34.55-7.54s23.24-4.78 34.91-7.1 23.42-4.57 35.21-6.72l17.73-3.22c6-1 11.87-2.09 17.88-3-5.69 1.34-11.47 2.57-17.2 3.86l-17.35 3.68c-11.56 2.46-23.24 4.78-34.91 7.1s-23.42 4.57-35.24 6.72-23.6 4.26-35.58 6.22M355.89 429.91c10.09-2.38 20.33-4.59 30.59-6.76s20.6-4.26 31-6.33 20.78-4.05 31.28-5.94l15.71-2.88c5.31-.88 10.56-1.82 15.91-2.66-5 1.21-10.15 2.31-15.23 3.47l-15.36 3.3c-10.25 2.19-20.61 4.26-31 6.32s-20.78 4-31.28 5.94-20.96 3.84-31.62 5.54M322.81 427.69c11.41-2.64 23-5.11 34.55-7.54s23.24-4.78 34.91-7.1 23.42-4.57 35.24-6.73l17.73-3.22c6-1 11.87-2.09 17.87-3.05-5.68 1.34-11.46 2.57-17.19 3.86l-17.35 3.68c-11.56 2.46-23.24 4.78-34.91 7.1s-23.42 4.57-35.24 6.72-23.63 4.32-35.61 6.28M362.93 411.05c13.28-3.37 27-6.24 40.77-9s27.79-5.28 42.16-7.35c-13.28 3.38-27 6.25-40.78 9s-27.78 5.3-42.15 7.35" style="fill:#dbdbdb"/><path d="m686.9 335.21-324.22 89.58v-64.57l324.22-89.58c17.18 31.68 0 64.57 0 64.57" style="fill:#37474f"/><path d="m46.3 380 316.38 44.79v-16.37L75.23 373.26 46.3 375z" style="fill:#455a64"/><path d="M362.69 360.52c11.82 28.45 0 64.27 0 64.27L61.56 377.23v-55.81Z" style="fill:#455a64"/><path d="M355.24 359.56c11.51 28.34.95 58.86.95 58.86L61.56 377v-55.6Z" style="fill:#fff"/><path d="M355.24 359.56c.39 1.1 1.52 4.2 1.91 5.29a83.2 83.2 0 0 1 3.52 24 100.3 100.3 0 0 1-4.33 29.6c.14.44-294.75-41.11-294.85-41l-.43-.06v-56.5l.5.07 146.9 19.23 146.72 19.35Zm0 0C283 349.85 131.83 331.93 62 321.42l.05 55.6-.43-.5c0 .11 295.24 41.59 294.4 41.85a95 95 0 0 0 3.34-14.57c2.23-14.77 1.37-30.27-4.13-44.24Z" style="fill:#dbdbdb"/><path d="M204.12 345.5c49.16 6 104.22 13.4 153.21 20.67-49.16-6-104.22-13.41-153.21-20.67M61.56 341.76c42.14 5 88.89 11.34 130.88 17.65-42.17-5-88.9-11.32-130.88-17.65M68.58 347.25c71.61 9 151.84 19.82 223.26 30.11-71.6-9-151.83-19.82-223.26-30.11M107.29 366.14c74.28 9.19 157.51 20.23 231.61 30.71-74.27-9.18-157.5-20.23-231.61-30.71M157.22 377.9c64.78 8.1 137.43 17.88 202.06 27.26-64.81-8.08-137.42-17.88-202.06-27.26M99 377.79c83 10.58 176 23.12 258.79 34.91-83-10.57-176-23.12-258.79-34.91" style="fill:#dbdbdb"/><path d="m362.69 360.52 324.21-89.88-327.62-14.84L46.3 313.84v5.6z" style="fill:#455a64"/><path d="M371 350.64c40.22-12.19 81.53-23.2 122.8-32.71-40.21 12.2-81.52 23.19-122.8 32.71M293.22 344.92c11.2.58 22.77 1.88 33.89 3.23s22.6 3 33.5 5.25c-11.2-.57-22.77-1.88-33.88-3.23s-22.6-3.05-33.51-5.25M55 314.93a6335 6335 0 0 1 228.55 28.76A6260 6260 0 0 1 55 314.93" style="fill:#37474f"/><path d="M583 307.06q47.46-14.91 96.07-27.17-47.44 14.91-96.07 27.17" style="fill:#455a64"/><path d="M414.89 257.81c-4.2.82-21.54 1.75-21.89-2-.54-5.64 40.93-45.64 55.81-53.16 14.15-7.16 59.74-22.78 71-23.12l.1 35.92c-6.37 1.62-57.12-3.33-67.78 2.33-4.63 2.46-10.76 12.66-23.24 28.86-4.39 5.71-11.52 10.68-14 11.17" style="fill:#3ce0d2"/><path d="M414.89 257.81c-4.2.82-21.54 1.75-21.89-2-.54-5.64 40.93-45.64 55.81-53.16 14.15-7.16 59.74-22.78 71-23.12l.1 35.92c-6.37 1.62-57.12-3.33-67.78 2.33-4.63 2.46-10.76 12.66-23.24 28.86-4.39 5.71-11.52 10.68-14 11.17" style="opacity:.30000000000000004"/><path d="M406.28 257.81c-4.21.82-20.33 1.75-20.69-2-.53-5.64 40.94-45.64 55.81-53.16 14.15-7.16 67.15-22.78 78.41-23.12l.1 35.92c-6.37 1.62-64.52-3.33-75.18 2.33-4.63 2.46-12 12.66-24.46 28.86-4.38 5.71-11.51 10.68-13.99 11.17" style="fill:#3ce0d2"/><path d="M406.28 257.81c-4.21.82-20.33 1.75-20.69-2-.53-5.64 40.94-45.64 55.81-53.16 14.15-7.16 67.15-22.78 78.41-23.12l.1 35.92c-6.37 1.62-64.52-3.33-75.18 2.33-4.63 2.46-12 12.66-24.46 28.86-4.38 5.71-11.51 10.68-13.99 11.17" style="opacity:.2"/><path d="M569.79 305.47c3.62 1.52 17.86 2.29 20.3-.78 3.68-4.65-41.22-67.92-67.6-79.4-24.67-10.65-372.72-78.25-379.9-79.37l-.26 28.08c48.49 7.58 356.17 56.6 375.2 64.89 12.41 5.39 28.22 33.83 39.58 53.48 4.59 7.98 8.48 11.34 12.68 13.1" style="fill:#3ce0d2"/><path d="M569.79 305.47c3.62 1.52 17.86 2.29 20.3-.78 3.68-4.65-41.22-67.92-67.6-79.4-24.67-10.65-372.72-78.25-379.9-79.37l-.26 28.08c48.49 7.58 356.17 56.6 375.2 64.89 12.41 5.39 28.22 33.83 39.58 53.48 4.59 7.98 8.48 11.34 12.68 13.1" style="opacity:.2"/><path d="M563.78 305.47c3.62 1.52 17.86 2.29 20.3-.78 3.68-4.65-40.89-69.45-67.26-80.93-24.68-10.65-367.05-76.76-374.23-77.84L136.32 174c48.49 7.58 356.17 56.6 375.2 64.89 12.41 5.39 28.22 33.83 39.58 53.48 4.59 7.98 8.48 11.34 12.68 13.1" style="fill:#3ce0d2"/><path d="M563.78 305.47c3.62 1.52 17.86 2.29 20.3-.78 3.68-4.65-40.89-69.45-67.26-80.93-24.68-10.65-367.05-76.76-374.23-77.84L136.32 174c48.49 7.58 356.17 56.6 375.2 64.89 12.41 5.39 28.22 33.83 39.58 53.48 4.59 7.98 8.48 11.34 12.68 13.1" style="opacity:.1"/><g style="opacity:.1"><path d="m210 158.88-26.34 22.65c-21.91-3.5-38.72-6.15-47.32-7.5l6.26-28.11c1.95.3 28.82 5.45 67.4 12.96M277.36 196.69 261 194l-15.2-28.12 24.09 4.76ZM369.5 190.66 351 208.89l-16.43-2.76 13.14-19.91q10.95 2.21 21.79 4.44M514.56 222.93l-6.37 14.89c-3.06-.86-7.67-1.94-13.6-3.19L490 216.48c11.54 2.72 20.06 4.93 24.56 6.45"/></g><path d="M208.74 320.18c-36.26-1.75-63.85-42.82-61.51-91.54 1.11-23.25 8.8-44.87 21.64-60.88 13.27-16.54 30.4-25.22 48.4-24.31s34.22 11.11 45.83 28.86c11.25 17.14 16.83 39.41 15.7 62.68-2.22 46.1-30.48 82.8-64.25 85.13a51 51 0 0 1-5.81.06m-30.64-145c-11.29 14.05-18.1 33.25-19.1 54.04-2 42.2 20.53 77.71 50.29 79.14s55.63-31.74 57.68-74c1-20.79-3.91-40.54-13.78-55.63-9.51-14.49-22.48-22.84-36.52-23.51a37 37 0 0 0-4.49 0c-12.44.95-24.4 7.88-34.08 19.94Zm-30.82 59.65c-1.83-35.64 2.16-41.22.54-51.73-.77-5-7.81-9.8-7.81-9.8l6.15-25.59s19.17 1.87 23.59 1.94c7.86.11 24.83-5.63 39.61-6 0 0-32.13 14.44-42.46 32.85s-19.62 58.31-19.62 58.31Z" style="fill:#3ce0d2"/><path d="M208.74 320.18c-36.26-1.75-63.85-42.82-61.51-91.54 1.11-23.25 8.8-44.87 21.64-60.88 13.27-16.54 30.4-25.22 48.4-24.31s34.22 11.11 45.83 28.86c11.25 17.14 16.83 39.41 15.7 62.68-2.22 46.1-30.48 82.8-64.25 85.13a51 51 0 0 1-5.81.06m-30.64-145c-11.29 14.05-18.1 33.25-19.1 54.04-2 42.2 20.53 77.71 50.29 79.14s55.63-31.74 57.68-74c1-20.79-3.91-40.54-13.78-55.63-9.51-14.49-22.48-22.84-36.52-23.51a37 37 0 0 0-4.49 0c-12.44.95-24.4 7.88-34.08 19.94Zm-30.82 59.65c-1.83-35.64 2.16-41.22.54-51.73-.77-5-7.81-9.8-7.81-9.8l6.15-25.59s19.17 1.87 23.59 1.94c7.86.11 24.83-5.63 39.61-6 0 0-32.13 14.44-42.46 32.85s-19.62 58.31-19.62 58.31Z" style="opacity:.1"/><path d="M203.81 320.18c-36.27-1.75-63.86-42.82-61.52-91.54 1.11-23.25 8.8-44.87 21.64-60.88 13.27-16.54 30.4-25.22 48.4-24.31s34.22 11.11 45.83 28.86c11.25 17.14 16.83 39.41 15.7 62.68-2.22 46.1-30.48 82.8-64.25 85.13a51 51 0 0 1-5.8.06m-30.65-145c-11.29 14.07-18.06 33.27-19.06 54.06-2 42.2 20.52 77.71 50.28 79.14s55.63-31.74 57.68-74c1-20.79-3.91-40.54-13.78-55.63-9.5-14.49-22.48-22.84-36.52-23.51a37 37 0 0 0-4.49 0c-12.46.93-24.43 7.86-34.11 19.92Zm-30.82 59.65c-1.83-35.64 2.16-41.22.54-51.73-.77-5-7.81-9.8-7.81-9.8l6.43-28.52s19.49 3.45 23.9 3.51c7.86.12 24.24-4.27 39-4.6 0 0-32.13 14.44-42.46 32.85s-19.6 58.27-19.6 58.27Z" style="fill:#3ce0d2"/><path d="M160.72 157.83c-.23 1.77-3.52 2.79-7.35 2.28s-6.73-2.36-6.49-4.12 3.52-2.79 7.35-2.28 6.77 2.35 6.49 4.12" style="fill:#a6a6a6"/><path d="M148.56 156.05c.31-.85 3.64-1.81 7.28-.83M140 173.53c6.92 3.88 9.88 9.6 9.1 17.52-.77 13.74-2.32 27.35-2.34 41.09a132 132 0 0 0 1.32 20.5c-4.43-16.74-3.11-34.39-1.55-51.44l1-10.24c1.08-7.66-1.34-12.9-7.55-17.43ZM176.14 149.94c9.6-2.74 19.57-5 29.61-4.55-10 .89-19.71 3.13-29.61 4.55" style="fill:#fff"/><path d="M176.13 175.89c-10.91 14-17.45 33.08-18.43 53.76-1.95 42 19.85 77.28 48.61 78.71s53.77-31.57 55.75-73.55c1-20.67-3.77-40.32-13.31-55.32-9.19-14.42-21.73-22.72-35.31-23.39a35 35 0 0 0-4.34 0c-12.05.9-23.61 7.78-32.97 19.79" style="fill:#ebebeb;opacity:.1"/><g style="opacity:.2"><path d="m231.32 161.74-73.7 75.83c-.07-2.62 0-5.25.09-7.93a107.8 107.8 0 0 1 3.58-23.15l49-50.39h3.17a38 38 0 0 1 17.86 5.64M257 197l-85.83 88.31a72 72 0 0 1-4.28-7.61l86.71-89.22A81 81 0 0 1 257 197M260.34 249.76a102 102 0 0 1-4.58 16.73l-39.95 41.1a36.3 36.3 0 0 1-9.5.77c-.9-.05-1.8-.12-2.69-.24ZM260.5 210.59l-81.85 84.21c-.39-.38-.76-.78-1.12-1.19l82.59-85c.15.66.26 1.33.38 1.98" style="fill:#fff"/></g><path d="m321.72 237.17 8-8.69c-12.86-11.9-43.13-28.52-65.81-6.47l8.24 8.48c20.32-19.79 48.38 5.6 49.57 6.68" style="fill:#3ce0d2"/><path d="M398.26 331a88.58 88.58 0 0 1-71.15-103 88.51 88.51 0 1 1 71.15 103m-59.51-100.84a76.56 76.56 0 1 0 70.13-62.71 76.74 76.74 0 0 0-70.13 62.71" style="fill:#3ce0d2"/><path d="M493 206.12c-6.09-20.22-41.56-42.45-41.56-42.45 14.36 3.53 30.2 10.71 37.9 12.31 4.32.89 30.52 3.57 30.52 3.57l.1 35.92s-7.2.4-9 5.11c-3.86 9.91-1.91 12.31-11.43 46.69-.09 0-.53-40.94-6.53-61.15" style="fill:#3ce0d2"/><g style="opacity:.1"><path d="M398.26 331a88.58 88.58 0 0 1-71.15-103 88.51 88.51 0 1 1 71.15 103m-59.51-100.84a76.56 76.56 0 1 0 70.13-62.71 76.74 76.74 0 0 0-70.13 62.71"/><path d="M493 206.12c-6.09-20.22-41.56-42.45-41.56-42.45 14.36 3.53 30.2 10.71 37.9 12.31 4.32.89 30.52 3.57 30.52 3.57l.1 35.92s-7.2.4-9 5.11c-3.86 9.91-1.91 12.31-11.43 46.69-.09 0-.53-40.94-6.53-61.15"/></g><path d="M390.39 329.71a88.58 88.58 0 0 1-71.15-102.91 88.55 88.55 0 1 1 71.15 102.92Zm-59.51-100.79a76.61 76.61 0 1 0 70.12-62.7 76.74 76.74 0 0 0-70.12 62.7" style="fill:#3ce0d2"/><path d="M485.08 204.88c-6.09-20.22-41.56-42.45-41.56-42.45 14.36 3.53 30.2 10.71 37.9 12.31 4.32.89 30.52 3.57 30.52 3.57l.1 32.89s-7.2 2.18-9 6.88c-3.87 9.91-1.92 13.57-11.44 48-.03-.08-.43-40.99-6.52-61.2" style="fill:#3ce0d2"/><path d="M500.72 193.08c-.24 1.77-3.53 2.79-7.35 2.28s-6.74-2.35-6.5-4.12 3.53-2.79 7.35-2.28 6.78 2.36 6.5 4.12" style="fill:#a6a6a6"/><path d="M488.55 191.31c.31-.85 3.64-1.82 7.28-.83M365.83 168.87a43 43 0 0 1 26.4-8.79c-9 2.64-17.66 5.5-26.4 8.79M328.38 213c4.48-17.89 19.44-35.15 35.91-43.2-15.42 11-28.35 25.76-35.91 43.2" style="fill:#fff"/><path d="M334.53 228.92c-7.4 41.57 19.58 81.57 60.16 89.16s79.6-20.07 87-61.63-19.59-81.58-60.17-89.16a72.5 72.5 0 0 0-18.52-1.07c-33.33 2.35-62.21 27.55-68.47 62.7" style="fill:#ebebeb;opacity:.1"/><g style="opacity:.2"><path d="m482.84 246.22-71.29 73a73 73 0 0 1-16.86-1.18 71 71 0 0 1-7.13-1.71L480 221.64a77.4 77.4 0 0 1 2.84 24.58M417.7 166.68l-83.77 85.84a78.5 78.5 0 0 1 .6-23.6c.34-1.94.77-3.87 1.25-5.76L389 168.59a72.7 72.7 0 0 1 14-2.37 71.4 71.4 0 0 1 14.7.46M470.69 200.79l-103.49 106a71 71 0 0 1-6.79-5.13L465.7 193.83a74 74 0 0 1 4.99 6.96M438.31 172.55l-98.62 101a77 77 0 0 1-3.18-8.82l93.19-95.48a74 74 0 0 1 8.61 3.3M481.88 255.39c-.05.35-.12.71-.18 1.06-.1.62-.22 1.24-.35 1.84l-58 59.44c-.93.2-1.88.38-2.84.54ZM459.81 187.33 354.09 295.65c-.38-.4-.75-.81-1.11-1.22l105.65-108.25Z" style="fill:#fff"/></g></svg>